<?xml version="1.0" encoding="UTF-8" standalone="no"?>
<!-- Created with Inkscape (http://www.inkscape.org/) -->

<svg
   width="50mm"
   height="50mm"
   viewBox="0 0 50 50"
   version="1.1"
   id="svg1"
   inkscape:version="1.3.2 (091e20e, 2023-11-25, custom)"
   sodipodi:docname="bill-managment.svg"
   xmlns:inkscape="http://www.inkscape.org/namespaces/inkscape"
   xmlns:sodipodi="http://sodipodi.sourceforge.net/DTD/sodipodi-0.dtd"
   xmlns:xlink="http://www.w3.org/1999/xlink"
   xmlns="http://www.w3.org/2000/svg"
   xmlns:svg="http://www.w3.org/2000/svg">
  <sodipodi:namedview
     id="namedview1"
     pagecolor="#505050"
     bordercolor="#eeeeee"
     borderopacity="1"
     inkscape:showpageshadow="0"
     inkscape:pageopacity="0"
     inkscape:pagecheckerboard="0"
     inkscape:deskcolor="#505050"
     inkscape:document-units="mm"
     inkscape:zoom="2.0686841"
     inkscape:cx="97.646613"
     inkscape:cy="190.21754"
     inkscape:window-width="1920"
     inkscape:window-height="1017"
     inkscape:window-x="1912"
     inkscape:window-y="-8"
     inkscape:window-maximized="1"
     inkscape:current-layer="layer1" />
  <defs
     id="defs1">
    <linearGradient
       id="linearGradient1"
       inkscape:collect="always">
      <stop
         style="stop-color:#006eff;stop-opacity:1;"
         offset="0"
         id="stop1" />
      <stop
         style="stop-color:#642eff;stop-opacity:1;"
         offset="1"
         id="stop2" />
    </linearGradient>
    <linearGradient
       inkscape:collect="always"
       xlink:href="#linearGradient1"
       id="linearGradient2"
       x1="0"
       y1="25"
       x2="50.000001"
       y2="25"
       gradientUnits="userSpaceOnUse" />
  </defs>
  <g
     inkscape:label="Warstwa 1"
     inkscape:groupmode="layer"
     id="layer1">
    <path
       d="M 42.876152,0.00264732 H 8.2856921 c -0.057053,-0.003529759 -0.1143936,-0.003529759 -0.1714105,0 C 5.9078053,0.17172269 3.8472547,1.1499949 2.3434175,2.7423743 0.83958023,4.3347537 0.00284724,6.42437 0,8.5947119 V 34.370764 c 0.00252328,1.772644 0.72176341,3.472081 2.0000386,4.725498 1.2782644,1.253488 3.011292,1.958804 4.8190068,1.96131 h 8.3809286 v 7.770196 c 0,0.216727 0.06152,0.429289 0.177818,0.613648 0.116193,0.184606 0.282565,0.333562 0.480284,0.430454 0.197723,0.09707 0.419142,0.138013 0.639334,0.1186 0.220184,-0.01765 0.430477,-0.09848 0.607334,-0.228729 l 7.39047,-5.435402 7.390473,5.435402 C 32.09043,49.916345 32.341592,50 32.599975,50 c 0.258375,0 0.509523,-0.08366 0.714283,-0.238259 l 7.390474,-5.435402 7.39047,5.435402 c 0.204778,0.153898 0.456286,0.236141 0.714287,0.233317 0.156652,0.0012 0.312081,-0.02824 0.457045,-0.08648 0.145062,-0.05824 0.27677,-0.144014 0.387621,-0.25273 0.110758,-0.108717 0.198371,-0.237906 0.2578,-0.380014 0.05932,-0.142249 0.08923,-0.294382 0.08801,-0.448173 V 6.9789302 C 49.997487,5.1278196 49.245772,3.35334 47.910059,2.0453178 46.574346,0.7372604 44.76387,0.00254143 42.876159,0.00254143 Z M 15.199974,38.750805 H 6.8190274 c -1.1770487,0 -2.305903,-0.458551 -3.1382086,-1.274701 C 2.8485133,36.659953 2.380932,35.552986 2.380932,34.398755 V 8.6227028 c 0,-1.6669278 0.675286,-3.2656255 1.8773336,-4.4443526 1.2020007,-1.1787272 2.8322829,-1.8409096 4.5321875,-1.8409096 1.6999049,0 3.3301909,0.6621824 4.5321879,1.8409096 1.202,1.1787271 1.877333,2.7774248 1.877333,4.4443526 z M 28.590445,13.198892 c 0.766664,-0.726212 1.791236,-1.131428 2.857141,-1.130017 v -1.998583 c 0,-0.3095601 0.125445,-0.6065892 0.348653,-0.8255047 0.223244,-0.218845 0.526092,-0.3420335 0.841808,-0.3420335 0.315716,0 0.618571,0.1228355 0.841808,0.3420335 0.223244,0.2188449 0.348653,0.5159093 0.348653,0.8255047 v 1.98923 h 1.95238 c 0.315716,0 0.618572,0.122835 0.841808,0.342033 0.223244,0.218845 0.348653,0.515909 0.348653,0.825504 0,0.30956 -0.125445,0.606483 -0.348653,0.825469 -0.223244,0.218845 -0.526095,0.342034 -0.841808,0.342034 h -4.304761 c -0.461239,-0.0015 -0.905142,0.172605 -1.238093,0.485624 -0.153917,0.145073 -0.276302,0.31909 -0.359811,0.511603 -0.08344,0.192725 -0.126272,0.399816 -0.125912,0.609095 0.0061,0.215668 0.05561,0.428406 0.145637,0.625543 0.08999,0.196961 0.218745,0.374861 0.378763,0.523252 0.160108,0.148249 0.348472,0.264378 0.554284,0.340974 0.205822,0.07695 0.424955,0.113305 0.645143,0.107305 h 2.247619 c 1.075333,-0.01059 2.110854,0.398015 2.880092,1.134887 0.769238,0.736873 1.209621,1.7425 1.224667,2.796874 -0.0013,0.523287 -0.109894,1.040961 -0.319352,1.522314 -0.209421,0.481212 -0.515426,0.916325 -0.899714,1.279431 -0.765714,0.728754 -1.790091,1.137252 -2.857141,1.139406 v 1.998548 c 0,0.30956 -0.125445,0.606483 -0.348653,0.825505 -0.223244,0.218844 -0.526092,0.342033 -0.841808,0.342033 -0.315716,0 -0.618571,-0.122836 -0.841808,-0.342033 -0.223244,-0.218845 -0.348652,-0.51591 -0.348652,-0.825505 v -2.007902 h -1.904763 c -0.315716,0 -0.618568,-0.123189 -0.841808,-0.342034 -0.223244,-0.218845 -0.348652,-0.515909 -0.348652,-0.825504 0,-0.30956 0.125444,-0.606589 0.348652,-0.825469 0.223244,-0.218845 0.526096,-0.342034 0.841808,-0.342034 h 4.266667 c 0.456473,5.65e-4 0.895903,-0.169781 1.228569,-0.476305 0.156581,-0.143661 0.281233,-0.316972 0.366477,-0.509803 0.08513,-0.192725 0.129044,-0.400733 0.128756,-0.610895 -0.0061,-0.216021 -0.05561,-0.428477 -0.145637,-0.625614 -0.08999,-0.196961 -0.218745,-0.37486 -0.378763,-0.523181 -0.160108,-0.14825 -0.348472,-0.264026 -0.554287,-0.340974 -0.205822,-0.07695 -0.425046,-0.113305 -0.64514,-0.106952 h -2.257143 c -0.532762,0.0071 -1.061619,-0.09071 -1.556283,-0.284851 -0.494668,-0.194137 -0.945429,-0.482165 -1.326574,-0.847248 -0.381142,-0.365047 -0.685235,-0.800267 -0.894949,-1.280561 -0.209601,-0.480435 -0.320755,-0.996591 -0.326946,-1.519031 0.0013,-0.523286 0.109894,-1.041031 0.319351,-1.522278 0.209422,-0.481353 0.515427,-0.916466 0.899715,-1.279466 z M 39.285678,37.387295 H 25.95235 c -0.315716,0 -0.618571,-0.122836 -0.841808,-0.342034 -0.223244,-0.218845 -0.348652,-0.515909 -0.348652,-0.825504 0,-0.30956 0.125408,-0.606589 0.348652,-0.825504 0.223244,-0.218845 0.526096,-0.342034 0.841808,-0.342034 h 13.333328 c 0.315717,0 0.618568,0.122836 0.841809,0.342034 0.223244,0.218845 0.348652,0.515909 0.348652,0.825504 0,0.30956 -0.125444,0.606483 -0.348652,0.825504 -0.223244,0.218845 -0.526096,0.342034 -0.841809,0.342034 z m 0,-4.417421 H 25.95235 c -0.318272,0 -0.623524,-0.123894 -0.848571,-0.344857 -0.224936,-0.22061 -0.351424,-0.520004 -0.351424,-0.831999 0,-0.312031 0.126488,-0.61146 0.351424,-0.83214 0.225043,-0.22061 0.530285,-0.344505 0.848571,-0.344505 h 13.333328 c 0.315717,0 0.618568,0.122836 0.841809,0.342034 0.223244,0.218845 0.348652,0.515909 0.348652,0.825504 0,0.30956 -0.125444,0.606483 -0.348652,0.825469 -0.223244,0.218845 -0.526096,0.342034 -0.841809,0.342034 z"
       fill="#000000"
       id="path1"
       style="stroke-width:0.9431;fill:url(#linearGradient2)" />
  </g>
</svg>
