<?xml version="1.0" encoding="UTF-8" standalone="no"?>
<!-- Created with Inkscape (http://www.inkscape.org/) -->

<svg
   width="340.10739mm"
   height="128.39423mm"
   viewBox="0 0 340.10739 128.39423"
   version="1.1"
   id="svg1"
   inkscape:export-filename="background2.svg"
   inkscape:export-xdpi="96"
   inkscape:export-ydpi="96"
   sodipodi:docname="background2.svg"
   inkscape:version="1.3.2 (091e20e, 2023-11-25, custom)"
   xmlns:inkscape="http://www.inkscape.org/namespaces/inkscape"
   xmlns:sodipodi="http://sodipodi.sourceforge.net/DTD/sodipodi-0.dtd"
   xmlns:xlink="http://www.w3.org/1999/xlink"
   xmlns="http://www.w3.org/2000/svg"
   xmlns:svg="http://www.w3.org/2000/svg">
  <sodipodi:namedview
     id="namedview1"
     pagecolor="#505050"
     bordercolor="#eeeeee"
     borderopacity="1"
     inkscape:showpageshadow="0"
     inkscape:pageopacity="0"
     inkscape:pagecheckerboard="0"
     inkscape:deskcolor="#505050"
     inkscape:document-units="mm"
     inkscape:zoom="0.83784198"
     inkscape:cx="456.53"
     inkscape:cy="239.30527"
     inkscape:window-width="1920"
     inkscape:window-height="1017"
     inkscape:window-x="1912"
     inkscape:window-y="-8"
     inkscape:window-maximized="1"
     inkscape:current-layer="layer1" />
  <defs
     id="defs1">
    <linearGradient
       id="linearGradient24"
       inkscape:collect="always">
      <stop
         style="stop-color:#d6565f;stop-opacity:1;"
         offset="0"
         id="stop24" />
      <stop
         style="stop-color:#fe8c64;stop-opacity:1;"
         offset="1"
         id="stop25" />
    </linearGradient>
    <linearGradient
       id="linearGradient22"
       inkscape:collect="always">
      <stop
         style="stop-color:#fea764;stop-opacity:1;"
         offset="0"
         id="stop22" />
      <stop
         style="stop-color:#fe3864;stop-opacity:1;"
         offset="1"
         id="stop23" />
    </linearGradient>
    <linearGradient
       id="linearGradient21"
       inkscape:collect="always">
      <stop
         style="stop-color:#1f91b3;stop-opacity:1;"
         offset="0"
         id="stop20" />
      <stop
         style="stop-color:#620188;stop-opacity:1;"
         offset="1"
         id="stop21" />
    </linearGradient>
    <linearGradient
       id="linearGradient5"
       inkscape:collect="always">
      <stop
         style="stop-color:#0104b5;stop-opacity:1;"
         offset="0"
         id="stop5" />
      <stop
         style="stop-color:#219bb3;stop-opacity:1;"
         offset="1"
         id="stop6" />
    </linearGradient>
    <linearGradient
       inkscape:collect="always"
       xlink:href="#linearGradient5"
       id="linearGradient6"
       x1="-2.5322778"
       y1="298.08527"
       x2="85.012177"
       y2="242.37515"
       gradientUnits="userSpaceOnUse"
       gradientTransform="matrix(1.1957436,0,0,1,-26.474286,0)" />
    <linearGradient
       inkscape:collect="always"
       xlink:href="#linearGradient21"
       id="linearGradient20"
       x1="-50.283752"
       y1="247.61488"
       x2="239.19492"
       y2="247.61488"
       gradientUnits="userSpaceOnUse" />
    <linearGradient
       inkscape:collect="always"
       xlink:href="#linearGradient22"
       id="linearGradient23"
       x1="76.032829"
       y1="206.06503"
       x2="172.66501"
       y2="249.96004"
       gradientUnits="userSpaceOnUse" />
    <linearGradient
       inkscape:collect="always"
       xlink:href="#linearGradient24"
       id="linearGradient25"
       x1="193.19145"
       y1="292.59189"
       x2="70.032791"
       y2="264.80225"
       gradientUnits="userSpaceOnUse" />
  </defs>
  <g
     inkscape:label="Warstwa 1"
     inkscape:groupmode="layer"
     id="layer1"
     transform="translate(50.283754,-175.11747)">
    <path
       style="fill:url(#linearGradient23);stroke:#000000;stroke-width:0;fill-opacity:1"
       d="m 17.613244,203.88662 c 71.143734,14.72415 31.507383,-0.27321 94.765826,-4.56019 38.60152,-2.616 42.01017,37.80191 58.82883,48.11327 18.38405,11.27109 36.76803,13.02315 41.95881,18.81122 5.19078,5.78805 20.33055,20.25822 21.19568,22.79049 0.86513,2.53228 -186.868065,4.34105 -186.868065,4.34105 L 3.3562494,227.01207 Z"
       id="path5"
       sodipodi:nodetypes="cssssccc" />
    <path
       id="path4"
       style="fill:url(#linearGradient20);stroke:#000000;stroke-width:0"
       d="m 25.422169,199.14391 c -36.20562,-11.79801 -40.999337,11.47481 -75.639799,-4.70457 l -0.06612,28.55997 v 80.5124 h 283.2039 c 3.67358,-5.27021 6.80028,-11.20963 6.20065,-15.55564 -1.29769,-9.40559 -8.21871,-12.66108 -13.84204,-16.2786 -5.62334,-3.61753 -35.47046,-9.40598 -52.34048,-12.30002 -53.52505,-9.18216 -24.99969,-22.05151 -74.978557,-26.8315 -42.10935,-4.02734 -28.420722,-19.02607 -72.537554,-33.40204 z"
       sodipodi:nodetypes="sccccsssss" />
    <path
       id="path3"
       style="fill:url(#linearGradient25);fill-opacity:1;stroke:#000000;stroke-width:0"
       d="m 67.014514,251.68386 c -1.831731,0.004 -3.191091,0.14184 -3.948079,0.45837 -6.0559,2.5323 -104.680432,14.47044 -104.680432,14.47044 l -0.408761,36.89904 H 289.82365 c -17.12706,-20.39569 -63.82688,-21.50506 -85.30848,-27.49342 -23.35849,-6.51156 -42.92978,-23.21398 -73.96862,-19.53472 -14.72903,1.74594 -50.70992,-4.82589 -63.532036,-4.79971 z" />
    <path
       id="path2"
       style="fill:url(#linearGradient6);fill-opacity:1;stroke:#000000;stroke-width:0"
       d="m -19.283061,215.19823 c -10.583428,-0.10837 -21.120428,1.28123 -31.000691,4.1398 v 84.17368 H 173.25609 c -0.21596,-1.19165 -1.25168,-2.40253 -3.34605,-3.61787 -42.39132,-24.59927 -44.12122,-18.08756 -59.26098,-22.42861 -21.825206,-6.25797 -67.047819,-45.58071 -91.271431,-54.9863 -12.1118079,-4.7028 -25.4134003,-7.14504 -38.66069,-7.2807 z"
       inkscape:export-filename="background2.svg"
       inkscape:export-xdpi="96"
       inkscape:export-ydpi="96" />
  </g>
</svg>
